<svg xmlns="http://www.w3.org/2000/svg" width="231" height="49" viewBox="0 0 231 49">
    <g fill="none" fill-rule="evenodd">
        <path fill="#85D6FF" d="M68.776 12.45a12.971 12.971 0 0 0-5.108-1.042c-6.296 0-11.55 4.473-12.77 10.42l-7.919-6.915h-.002a12.975 12.975 0 0 0-8.829-3.454c-7.2 0-13.038 5.85-13.038 13.067 0 7.216 5.837 13.066 13.038 13.066 6.342 0 11.624-4.538 12.794-10.55l7.28 6.433a13.056 13.056 0 0 0 4.464 3.076 12.97 12.97 0 0 0 5.107 1.041c7.201 0 13.038-5.85 13.038-13.066a13.07 13.07 0 0 0-8.055-12.077M57.274 24.526c0-3.609 2.919-6.534 6.52-6.534.864 0 1.689.17 2.444.477a6.535 6.535 0 0 1 3.949 6.005c0 3.608-2.919 6.534-6.519 6.534-.865 0-1.69-.17-2.444-.477a6.535 6.535 0 0 1-3.95-6.005m-23.126 6.533c-3.6 0-6.519-2.925-6.519-6.533 0-3.609 2.919-6.534 6.519-6.534s6.519 2.925 6.519 6.534c0 3.608-2.919 6.533-6.519 6.533"/>
        <path fill="#FFF" d="M93.696 11.433c-7.2 0-13.038 5.85-13.038 13.067V49h6.519V35.814a12.952 12.952 0 0 0 6.519 1.753c7.2 0 13.038-5.85 13.038-13.067 0-7.216-5.837-13.067-13.038-13.067m0 19.6c-3.6 0-6.519-2.925-6.519-6.533 0-3.608 2.919-6.533 6.519-6.533s6.519 2.925 6.519 6.533a6.535 6.535 0 0 1-3.478 5.78 6.48 6.48 0 0 1-3.041.753M224.422 0v13.186a12.95 12.95 0 0 0-6.52-1.753c-7.2 0-13.037 5.85-13.037 13.067 0 7.217 5.837 13.067 13.038 13.067 7.2 0 13.038-5.85 13.038-13.067V0h-6.52zm-6.52 31.033c-3.6 0-6.518-2.925-6.518-6.533 0-3.608 2.918-6.533 6.519-6.533 3.6 0 6.519 2.925 6.519 6.533 0 3.608-2.919 6.533-6.52 6.533zM123.512 17.967a6.515 6.515 0 0 1 5.799 3.549l5.334-3.819c-2.29-3.756-6.419-6.264-11.133-6.264-7.2 0-13.038 5.85-13.038 13.067 0 7.217 5.838 13.067 13.038 13.067 4.714 0 8.843-2.508 11.133-6.264l-5.334-3.819a6.515 6.515 0 0 1-5.799 3.55c-3.6 0-6.519-2.926-6.519-6.534 0-3.608 2.92-6.533 6.52-6.533M161.632 11.433c-7.2 0-13.038 5.85-13.038 13.067 0 7.217 5.837 13.067 13.038 13.067 7.2 0 13.038-5.85 13.038-13.067 0-7.216-5.837-13.067-13.038-13.067m0 19.6c-3.6 0-6.519-2.925-6.519-6.533 0-3.608 2.919-6.533 6.52-6.533 3.6 0 6.518 2.925 6.518 6.533 0 3.608-2.919 6.533-6.519 6.533M139 38h6V0h-6z"/>
        <g fill="#FFF">
            <path d="M6.573 24.76V0H.059v24.76c0 7.293 5.832 13.206 13.027 13.206h4.885v-6.603h-4.885c-3.597 0-6.513-2.956-6.513-6.603M194.371 15.968V26.41c0 2.734-2.187 4.952-4.885 4.952-2.697 0-4.885-2.218-4.885-4.952V11.555h-6.513v14.993h.002c.072 6.317 5.147 11.418 11.396 11.418 6.295 0 11.399-5.174 11.399-11.555V11.555h-6.514v4.413z"/>
        </g>
    </g>
</svg>
